# xmcd CD database file
#
# Track frame offsets:
#	150
#	11150
#	21125
#	35305
#	44147
#	54345
#	65255
#	75882
#	86770
#	97797
#	109220
#	119490
#	129337
#	141680
#	152492
#	164590
#	173615
#	183885
#	192720
#	203510
#	215402
#	228445
#	237900
#	247527
#	258362
#	269185
#
# Disc length: 3733 seconds
#
# Revision: 2
# Processed by: cddbd v1.5.2PL0 Copyright (c) Steve Scherf et al.
# Submitted via: CDex 1.51
#
DISCID=630e931a
DTITLE=Ike Turner's Kings Of Rhythm - Down And Out - The Cobra Sessions 1958-1959
DYEAR=1900
DGENRE=Blues
TTITLE0=Matchbox - Ike Turner's Kings Of Rhythm
TTITLE1=(I Know) You Don't Love Me No More - Ike Turner's Kings Of Rhythm
TTITLE2=Down And Out - Ike Turner's Kings Of Rhythm
TTITLE3=Box Top - Ike Turner's Kings Of Rhythm
TTITLE4=Walking Down The Aisle - Ike Turner's Kings Of Rhythm
TTITLE5=Matchbox - Ike Turner's Kings Of Rhythm
TTITLE6=You've Got To Lose - Ike Turner's Kings Of Rhythm
TTITLE7=You've Got To Lose - Ike Turner's Kings Of Rhythm
TTITLE8=You Keep On Worrying Me - Ike Turner's Kings Of Rhythm
TTITLE9=You Keep On Worrying Me - Ike Turner's Kings Of Rhythm
TTITLE10=Walking Down The Aisle - Ike Turner's Kings Of Rhythm
TTITLE11=(I Know) You Don't Love Me No More - Ike Turner's Kings Of Rhythm
TTITLE12=Double Trouble - Otis Rush
TTITLE13=Keep On Loving Me - Otis Rush
TTITLE14=You Sure Can't Do - Buddy Guy
TTITLE15=My Life Depends On You - Betty Everett
TTITLE16=My Love - Betty Everett
TTITLE17=Ain't Gonna Cry - Betty Everett
TTITLE18=Killer Diller - Betty Everett
TTITLE19=Killer Diller (Alt. Take) - Betty Everett
TTITLE20=I'll Weep No More - Betty Everett
TTITLE21=Tell Me Darling - Betty Everett
TTITLE22=Tell Me Darling (Alt. Take) - Betty Everett
TTITLE23=I'm Gonna Forget About You - Ike Turner's Kings Of Rhythm
TTITLE24=I'm Gonna Forget About You - Ike Turner's Kings Of Rhythm
TTITLE25=Matchbox - Ike Turner's Kings Of Rhythm
EXTD=
EXTT0=
EXTT1=
EXTT2=
EXTT3=
EXTT4=
EXTT5=
EXTT6=
EXTT7=
EXTT8=
EXTT9=
EXTT10=
EXTT11=
EXTT12=
EXTT13=
EXTT14=
EXTT15=
EXTT16=
EXTT17=
EXTT18=
EXTT19=
EXTT20=
EXTT21=
EXTT22=
EXTT23=
EXTT24=
EXTT25=
PLAYORDER=
